<svg width="1200" height="800" viewBox="0 0 1200 800" fill="none" xmlns="http://www.w3.org/2000/svg">
  <rect width="1200" height="800" rx="48" fill="#08130E"/>
  <rect width="1200" height="800" rx="48" fill="url(#greenGlow)"/>
  <circle cx="1004" cy="173" r="220" fill="#00FF88" fill-opacity="0.12"/>
  <circle cx="166" cy="677" r="260" fill="#2060FF" fill-opacity="0.08"/>
  <rect x="64" y="60" width="1072" height="680" rx="40" fill="#0A1A14" stroke="rgba(255,255,255,0.08)"/>
  <rect x="108" y="114" width="984" height="190" rx="32" fill="url(#heroGlow)"/>
  <rect x="152" y="160" width="132" height="132" rx="30" fill="#103826"/>
  <path d="M190 228L220 196L252 226" stroke="#9DF6CB" stroke-width="12" stroke-linecap="round" stroke-linejoin="round"/>
  <path d="M176 244H260" stroke="#9DF6CB" stroke-width="12" stroke-linecap="round"/>
  <rect x="326" y="166" width="382" height="24" rx="12" fill="#F0F0FF"/>
  <rect x="326" y="210" width="262" height="18" rx="9" fill="#C4E6D7" fill-opacity="0.5"/>
  <rect x="326" y="248" width="214" height="40" rx="20" fill="#00CC60"/>
  <rect x="108" y="346" width="300" height="166" rx="28" fill="#10251C"/>
  <rect x="450" y="346" width="300" height="166" rx="28" fill="#10251C"/>
  <rect x="792" y="346" width="300" height="166" rx="28" fill="#10251C"/>
  <rect x="108" y="548" width="984" height="128" rx="30" fill="#0E2018" stroke="#29B36C" stroke-opacity="0.35"/>
  <rect x="148" y="590" width="312" height="18" rx="9" fill="#00CC60"/>
  <rect x="148" y="624" width="222" height="12" rx="6" fill="#B7DCC8" fill-opacity="0.4"/>
  <text x="108" y="718" fill="#F0F0FF" font-family="Arial, sans-serif" font-size="58" font-weight="700" letter-spacing="5">SERVICOS LOCAIS</text>
  <text x="110" y="754" fill="#9CC0AE" font-family="Arial, sans-serif" font-size="24" letter-spacing="7">ATENDIMENTO • AGENDAMENTO • LEADS</text>
  <defs>
    <radialGradient id="greenGlow" cx="0" cy="0" r="1" gradientUnits="userSpaceOnUse" gradientTransform="translate(839 173) rotate(132.455) scale(752.769 1041.64)">
      <stop stop-color="#00FF88" stop-opacity="0.18"/>
      <stop offset="1" stop-color="#08130E" stop-opacity="0"/>
    </radialGradient>
    <linearGradient id="heroGlow" x1="108" y1="114" x2="1092" y2="304" gradientUnits="userSpaceOnUse">
      <stop stop-color="#143728"/>
      <stop offset="1" stop-color="#0B1813"/>
    </linearGradient>
  </defs>
</svg>
